<svg width="720" height="720" xmlns="http://www.w3.org/2000/svg" xmlns:xlink="http://www.w3.org/1999/xlink" overflow="hidden"><g><rect x="0" y="0" width="720" height="720" fill="#FFFFFF"/><path d="M446 333 401.815 333 401.815 245.253C401.815 218.942 380.815 197.536 355 197.536 329.185 197.536 308.185 218.942 308.185 245.253L308.185 333 264 333 264 245.253C264 194.384 304.822 153 355 153 405.178 153 446 194.383 446 245.253L446 333Z" fill="#324A5E" fill-rule="evenodd"/><path d="M354.699 153C354.464 153 354.235 153.017 354 153.017L354 197.554C354.233 197.551 354.464 197.535 354.699 197.535 380.599 197.535 401.669 218.941 401.669 245.253L401.669 333 446 333 446 245.253C446 194.385 405.043 153 354.699 153Z" fill="#2B3B4E" fill-rule="evenodd"/><path d="M414.431 518 296.568 518C252.624 518 217 482.333 217 438.336L217 310 494 310 494 438.336C494 482.333 458.376 518 414.431 518Z" fill="#FFB92E" fill-rule="evenodd"/><path d="M354 310 354 518 413.974 518C458.171 518 494 482.333 494 438.337L494 310 354 310Z" fill="#EBB15B" fill-rule="evenodd"/><path d="M377 391.091C377 378.89 367.15 369 355 369 342.85 369 333 378.89 333 391.091 333 399.043 337.199 405.992 343.477 409.883L343.477 439.153C343.477 445.145 348.313 450 354.279 450L355.721 450C361.688 450 366.523 445.144 366.523 439.153L366.523 409.883C372.801 405.992 377 399.043 377 391.091Z" fill="#324A5E" fill-rule="evenodd"/><path d="M354.707 369C354.469 369 354.238 369.027 354 369.035L354 450 355.437 450C361.484 450 366.384 445.144 366.384 439.153L366.384 409.883C372.745 405.992 377 399.043 377 391.091 377 378.89 367.019 369 354.707 369Z" fill="#2B3B4E" fill-rule="evenodd"/><g><g><g><path d="M10.375 83C10.375 123.11 42.8903 155.625 83 155.625 123.11 155.625 155.625 123.11 155.625 83 155.625 42.8903 123.11 10.375 83 10.375 42.8903 10.375 10.375 42.8903 10.375 83Z" fill="#4CAF50" transform="matrix(1.00602 0 0 1 410 435)"/><path d="M72.625 48.4167 93.375 48.4167 93.375 117.583 72.625 117.583Z" fill="#FFFFFF" transform="matrix(1.00602 0 0 1 410 435)"/><path d="M48.4167 72.625 117.583 72.625 117.583 93.375 48.4167 93.375Z" fill="#FFFFFF" transform="matrix(1.00602 0 0 1 410 435)"/></g></g></g></g></svg>